<svg width="36" height="36" viewBox="0 0 36 36" fill="none" xmlns="http://www.w3.org/2000/svg">
<circle cx="18" cy="18" r="18" fill="#222222"/>
<path d="M26.4541 21.0592C26.1349 22.0822 25.6316 23.1053 24.9441 24.1283C23.8883 25.7325 22.8365 26.5346 21.7889 26.5346C21.3879 26.5346 20.815 26.4036 20.0702 26.1417C19.3663 25.8798 18.7484 25.7489 18.2164 25.7489C17.7171 25.7489 17.136 25.8839 16.4731 26.154C15.8101 26.4323 15.27 26.5714 14.8525 26.5714C13.6085 26.5714 12.3767 25.5115 11.1572 23.3917C9.9541 21.2556 9.35254 19.1972 9.35254 17.2165C9.35254 15.3504 9.81496 13.8199 10.7398 12.625C11.6647 11.4464 12.8269 10.8571 14.2264 10.8571C14.8157 10.8571 15.54 10.9799 16.3994 11.2254C17.2506 11.471 17.8153 11.5938 18.0936 11.5938C18.4619 11.5938 19.0471 11.4546 19.8492 11.1763C20.684 10.8981 21.392 10.7589 21.9731 10.7589C22.947 10.7589 23.8187 11.0249 24.588 11.5569C25.0136 11.8516 25.4392 12.2608 25.8648 12.7846C25.2182 13.333 24.7517 13.8158 24.4653 14.2333C23.9333 15.0026 23.6673 15.8497 23.6673 16.7746C23.6673 17.7894 23.9496 18.702 24.5144 19.5123C25.0791 20.3225 25.7257 20.8382 26.4541 21.0592ZM21.838 6.65848C21.838 7.15774 21.7194 7.71428 21.482 8.32812C21.2365 8.94196 20.8559 9.5067 20.3403 10.0223C19.8983 10.4643 19.4563 10.7589 19.0144 10.9062C18.7115 10.9963 18.2859 11.0658 17.7376 11.115C17.7621 9.89546 18.0813 8.84375 18.6952 7.95982C19.3008 7.08408 20.3239 6.47842 21.7644 6.14286C21.7726 6.16741 21.7807 6.21242 21.7889 6.2779C21.8053 6.34338 21.8176 6.38839 21.8258 6.41295C21.8258 6.44568 21.8258 6.48661 21.8258 6.53571C21.8339 6.58482 21.838 6.62574 21.838 6.65848Z" fill="white"/>
</svg>
