<svg width="12" height="12" viewBox="0 0 12 12" fill="none" xmlns="http://www.w3.org/2000/svg">
<g clip-path="url(#clip0_62_20)">
<path d="M7.41065 2.01552L0.808079 8.61856C0.774861 8.65188 0.750876 8.69395 0.739454 8.73916L0.00762279 11.6766C-0.0142684 11.765 0.0117155 11.859 0.0762469 11.9236C0.125074 11.9724 0.191604 11.9994 0.259657 11.9994C0.280501 11.9994 0.301821 11.9969 0.32257 11.9916L3.25999 11.2597C3.30577 11.2483 3.34736 11.2244 3.38058 11.1912L9.98372 4.58859L7.41065 2.01552Z" fill="#1FA779"/>
<path d="M11.6193 1.11525L10.8843 0.380275C10.3931 -0.110944 9.53694 -0.110468 9.04629 0.380275L8.146 1.28057L10.719 3.85355L11.6193 2.95325C11.8646 2.70797 11.9998 2.38151 11.9998 2.0343C11.9998 1.68708 11.8646 1.36062 11.6193 1.11525Z" fill="#1FA779"/>
</g>
<defs>
<clipPath id="clip0_62_20">
<rect width="12" height="12" fill="white"/>
</clipPath>
</defs>
</svg>
